<!-- icon666.com - MILLIONS vector ICONS FREE --><svg clip-rule="evenodd" fill-rule="evenodd" stroke-linejoin="round" stroke-miterlimit="2" viewBox="0 0 32 32" xmlns="http://www.w3.org/2000/svg"><path d="m11 11v-2.54c0-1.911 1.549-3.46 3.46-3.46h11.08c1.911 0 3.46 1.549 3.46 3.46v12.54h-8.023c.002 1.471.002 2.926-.008 3-.1.748-.443 1.447-.982 1.987-.649.648-1.529 1.013-2.447 1.013-5.229 0-14.54 0-14.54 0v-12.54c0-.918.365-1.798 1.013-2.447.649-.648 1.529-1.013 2.447-1.013z" fill="#fff"></path><path d="m10.46 11c-.918 0-1.798.365-2.447 1.013-.648.649-1.013 1.529-1.013 2.447v12.54h-4v-12.54c0-.918.365-1.798 1.013-2.447.649-.648 1.529-1.013 2.447-1.013z" fill="#c2cdd3"></path><g fill="#ff2462"><path d="m16.5 12h-1c-.552 0-1 .448-1 1s.448 1 1 1h1c.552 0 1-.448 1-1s-.448-1-1-1"></path><path d="m20.5 12h-1c-.552 0-1 .448-1 1s.448 1 1 1h1c.552 0 1-.448 1-1s-.448-1-1-1"></path><path d="m24.5 12h-1c-.552 0-1 .448-1 1s.448 1 1 1h1c.552 0 1-.448 1-1s-.448-1-1-1"></path></g><path d="m28 20h-13.54c-1.359 0-2.46-1.101-2.46-2.46v-9.08c0-1.359 1.101-2.46 2.46-2.46h11.08c1.359 0 2.46 1.101 2.46 2.46zm2-11.54c0-2.463-1.997-4.46-4.46-4.46h-11.08c-2.463 0-4.46 1.997-4.46 4.46v1.54h-3.54c-1.183 0-2.317.47-3.154 1.306-.836.837-1.306 1.971-1.306 3.154v12.54c0 .552.448 1 1 1h14.54c1.183 0 2.317-.47 3.154-1.306.695-.696 1.137-1.597 1.266-2.561.074-.547-.311-1.051-.858-1.124-.547-.074-1.05.311-1.124.858-.071.532-.315 1.029-.699 1.412-.461.462-1.087.721-1.739.721h-13.54v-11.54c0-.652.259-1.278.721-1.739.461-.462 1.087-.721 1.739-.721h3.54v5.54c0 2.463 1.997 4.46 4.46 4.46h14.54c.552 0 1-.448 1-1z" fill="#272b30"></path></svg>