<!-- icon666.com - MILLIONS vector ICONS FREE --><svg version="1.1" id="Layer_1" xmlns="http://www.w3.org/2000/svg" xmlns:xlink="http://www.w3.org/1999/xlink" x="0px" y="0px" viewBox="0 0 512 512" style="enable-background:new 0 0 512 512;" xml:space="preserve"><path style="fill:#EFEFEF;" d="M289.677,445.823H206.07c-51.096,0-94.142-38.162-100.266-88.888 c-6.001-49.706-12.002-99.41-18.004-149.116h320.145c-6.001,49.706-12.002,99.41-18.004,149.116 C383.818,407.661,340.773,445.823,289.677,445.823z"></path><path style="fill:#D1D5D8;" d="M448.145,498.067H63.855c-28.854,0-52.245-23.391-52.245-52.245l0,0h488.78l0,0 C500.39,474.677,476.999,498.067,448.145,498.067z"></path><g><path style="fill:#231F20;" d="M500.39,434.213H358.075c16.243-12.442,29.048-29.233,36.609-48.775 c64.453-4.308,115.575-58.109,115.575-123.635V249.89c0-6.412-5.199-11.61-11.61-11.61h-82.686l3.51-29.07 c0.398-3.297-0.635-6.608-2.839-9.094c-2.202-2.486-5.365-3.908-8.687-3.908H87.8c-3.322,0-6.484,1.422-8.687,3.908 c-2.204,2.486-3.237,5.796-2.839,9.094l18.004,149.116c3.756,31.115,20.034,57.995,43.393,75.887H11.61 c-6.411,0-11.61,5.198-11.61,11.61c0,35.21,28.645,63.855,63.855,63.855h384.29c35.21,0,63.855-28.645,63.855-63.855 C512,439.41,506.801,434.213,500.39,434.213z M487.039,261.5v0.303c0,50.541-37.427,92.499-86.019,99.629 c0.154-1.033,0.323-2.062,0.448-3.106l11.69-96.826L487.039,261.5L487.039,261.5z M117.33,355.542l-16.434-136.114h293.952 l-16.433,136.114c-5.414,44.849-43.563,78.67-88.739,78.67h-83.608C160.893,434.213,122.744,400.392,117.33,355.542z M448.145,486.457H63.855c-18.373,0-33.937-12.258-38.946-29.025h462.182C482.082,474.2,466.518,486.457,448.145,486.457z"></path><path style="fill:#231F20;" d="M290.008,370.469c2.296,2.687,5.552,4.066,8.829,4.066c2.669,0,5.351-0.916,7.538-2.785 l52.779-45.123c2.581-2.206,4.066-5.43,4.066-8.825s-1.485-6.619-4.066-8.825l-52.779-45.123 c-4.872-4.167-12.202-3.593-16.369,1.281s-3.594,12.202,1.281,16.369l42.457,36.299l-42.457,36.3 C286.414,358.267,285.841,365.596,290.008,370.469z"></path><path style="fill:#231F20;" d="M205.738,265.133c-4.166-4.874-11.495-5.447-16.369-1.281l-52.779,45.123 c-2.581,2.206-4.066,5.43-4.066,8.825c0,3.395,1.485,6.619,4.066,8.825l52.779,45.123c2.187,1.87,4.869,2.785,7.538,2.785 c3.276,0,6.534-1.379,8.829-4.066c4.167-4.874,3.594-12.202-1.281-16.369L162,317.799l42.457-36.299 C209.333,277.335,209.905,270.007,205.738,265.133z"></path><path style="fill:#231F20;" d="M271.304,245.815c-6.099-1.983-12.648,1.351-14.633,7.449l-0.773,2.377 c-1.983,6.098,1.351,12.649,7.449,14.632c1.194,0.388,2.403,0.572,3.594,0.572c4.892,0,9.442-3.117,11.039-8.021l0.773-2.377 C280.736,254.351,277.402,247.799,271.304,245.815z"></path><path style="fill:#231F20;" d="M252.842,302.536c-6.101-1.985-12.65,1.349-14.633,7.447l-21.214,65.173 c-1.985,6.096,1.349,12.649,7.445,14.633c1.194,0.389,2.406,0.574,3.597,0.574c4.891,0,9.441-3.116,11.038-8.019l21.214-65.173 C262.273,311.071,258.939,304.52,252.842,302.536z"></path><path style="fill:#231F20;" d="M224.653,161.378c0,6.412,5.199,11.61,11.61,11.61c6.411,0,11.61-5.198,11.61-11.61 c0-7.668,3.175-11.029,8.439-16.599c6.238-6.601,14.781-15.642,14.781-32.546c0-16.905-8.543-25.947-14.781-32.549 c-5.262-5.569-8.439-8.932-8.439-16.602s3.176-11.033,8.439-16.602c6.238-6.601,14.781-15.643,14.781-32.549 c0-6.412-5.199-11.61-11.61-11.61s-11.61,5.198-11.61,11.61c0,7.671-3.176,11.033-8.439,16.602 c-6.238,6.603-14.781,15.644-14.781,32.549s8.543,25.947,14.781,32.549c5.262,5.569,8.439,8.932,8.439,16.602 c0,7.668-3.175,11.029-8.439,16.599C233.196,135.433,224.653,144.474,224.653,161.378z"></path><path style="fill:#231F20;" d="M298.833,172.988c6.411,0,11.61-5.198,11.61-11.61c0-7.668,3.175-11.029,8.439-16.599 c6.238-6.601,14.781-15.642,14.781-32.546c0-6.412-5.199-11.61-11.61-11.61c-6.411,0-11.61,5.198-11.61,11.61 c0,7.668-3.175,11.029-8.439,16.599c-6.238,6.601-14.781,15.642-14.781,32.546C287.223,167.79,292.421,172.988,298.833,172.988z"></path></g></svg>