<!-- icon666.com - MILLIONS vector ICONS FREE --><svg id="Reference" viewBox="0 0 48 48" xmlns="http://www.w3.org/2000/svg"><path d="m24 46c16-5 19-22 19-36 0 0-11-2-19-8-8 6-19 8-19 8 0 14 3 31 19 36z" fill="#ffc75d"></path><path d="m43 10s-11-2-19-8v44c16-5 19-22 19-36z" fill="#ff8c07"></path><path d="m24 40.7c-8.666-3.448-13.238-12.246-13.912-26.788 3.59-1.008 8.945-2.852 13.912-5.884 4.967 3.032 10.322 4.876 13.912 5.884-.674 14.542-5.246 23.34-13.912 26.788z" fill="#fff"></path><path d="m37.912 13.912c-3.59-1.008-8.945-2.852-13.912-5.884v32.672c8.666-3.448 13.238-12.246 13.912-26.788z" fill="#dee7f6"></path><g fill="#09105a"><path d="m24 47c-.101 0-.201-.015-.298-.045-13.074-4.086-19.702-16.519-19.702-36.955 0-.483.346-.897.821-.984.108-.02 10.869-2.034 18.579-7.816.355-.267.845-.267 1.2 0 7.71 5.782 18.471 7.796 18.579 7.816.475.087.821.501.821.984 0 20.436-6.628 32.869-19.702 36.955-.097.03-.198.045-.298.045zm-17.997-36.184c.169 18.816 6.222 30.295 17.997 34.134 11.775-3.838 17.827-15.317 17.997-34.134-2.668-.577-11.175-2.704-17.997-7.577-6.822 4.873-15.329 7-17.997 7.577z"></path><path d="m24 41.7c-.125 0-.251-.023-.37-.071-9.089-3.616-13.846-12.667-14.542-27.671-.021-.465.281-.883.729-1.009 3.55-.997 8.802-2.808 13.662-5.775.319-.195.723-.195 1.042 0 4.86 2.967 10.112 4.778 13.662 5.775.448.126.75.544.729 1.009-.696 15.003-5.452 24.055-14.542 27.671-.119.047-.244.071-.37.071zm-12.873-27.047c.767 13.454 4.984 21.631 12.873 24.966 7.889-3.334 12.105-11.512 12.873-24.966-3.502-1.03-8.312-2.762-12.873-5.459-4.561 2.697-9.37 4.429-12.873 5.459z"></path></g></svg>