<!-- icon666.com - MILLIONS vector ICONS FREE --><svg viewBox="0 -16 480 480" xmlns="http://www.w3.org/2000/svg"><path d="m448 56.238281v271.761719h-192v16c-.007812 2.652344-.667969 5.261719-1.921875 7.601562l1.921875.398438h216v-295.761719zm0 0" fill="#00ccb3"></path><path d="m307.601562 40h-51.601562v288h192v-288zm0 0" fill="#e6e7e8"></path><path d="m464 80v32l-18.800781 3.761719c-1.472657 5.304687-3.59375 10.410156-6.320313 15.199219l10.640625 15.917968-22.640625 22.640625-15.917968-10.640625c-4.789063 2.726563-9.894532 4.847656-15.199219 6.320313l-3.761719 18.800781h-32l-3.761719-18.800781c-5.304687-1.472657-10.410156-3.59375-15.199219-6.320313l-15.917968 10.640625-22.640625-22.640625 10.640625-15.917968c-2.726563-4.789063-4.847656-9.894532-6.320313-15.199219l-18.800781-3.761719v-32l18.800781-3.761719c1.472657-5.304687 3.59375-10.410156 6.320313-15.199219l-10.640625-15.917968 22.640625-22.640625 15.917968 10.640625c4.789063-2.726563 9.894532-4.847656 15.199219-6.320313l3.761719-18.800781h32l3.761719 18.800781c5.304687 1.472657 10.410156 3.59375 15.199219 6.320313l15.917968-10.640625 22.640625 22.640625-10.640625 15.917968c2.726563 4.789063 4.847656 9.894532 6.320313 15.199219zm0 0" fill="#ffa733"></path><path d="m224 344v-16h-192v-271.761719h-24v295.761719h216l1.921875-.398438c-1.253906-2.339843-1.914063-4.949218-1.921875-7.601562zm0 0" fill="#00ccb3"></path><path d="m32 40h192v288h-192zm0 0" fill="#e6e7e8"></path><path d="m216 392h176v32h-176zm0 0" fill="#5aaae7"></path><path d="m408 392c8.824219.027344 15.972656 7.175781 16 16-.066406 8.808594-7.191406 15.933594-16 16h-16v-32zm0 0" fill="#3d9ae2"></path><path d="m216 392v32h-8l-40-16 40-16zm0 0" fill="#1e81ce"></path><path d="m48 416h48c0 13.253906-10.746094 24-24 24s-24-10.746094-24-24zm0 0" fill="#898890"></path><path d="m101.199219 384.878906c6.4375 2.246094 10.765625 8.304688 10.800781 15.121094-.066406 8.808594-7.191406 15.933594-16 16h-48c-8.824219-.027344-15.972656-7.175781-16-16-.023438-4.246094 1.679688-8.316406 4.71875-11.28125 1.691406-1.746094 3.777344-3.0625 6.082031-3.839844 1.671875-.582031 3.429688-.878906 5.199219-.878906h48c1.769531 0 3.527344.296875 5.199219.878906zm0 0" fill="#acabb1"></path><path d="m64 152h128v64h-128zm0 0" fill="#78b9eb"></path><path d="m416 96c0 22.089844-17.910156 40-40 40s-40-17.910156-40-40 17.910156-40 40-40 40 17.910156 40 40zm0 0" fill="#ff6243"></path><path d="m256 328v16c0 8.835938-7.164062 16-16 16s-16-7.164062-16-16v-288h32zm0 0" fill="#ff9811"></path><path d="m72 264c-35.328125.042969-63.957031 28.671875-64 64-.011719 8.230469 1.59375 16.386719 4.71875 24 5.757812 14.214844 16.433594 25.886719 30.082031 32.878906 1.671875-.582031 3.429688-.878906 5.199219-.878906h48c1.769531 0 3.527344.296875 5.199219.878906 13.648437-6.992187 24.324219-18.664062 30.082031-32.878906 3.125-7.613281 4.730469-15.769531 4.71875-24 0-35.347656-28.652344-64-64-64zm0 0" fill="#ffd422"></path><path d="m40 48h176v272h-56v16h56v8c0 13.253906 10.746094 24 24 24s24-10.746094 24-24v-8h184c4.417969 0 8-3.582031 8-8v-136h-16v128h-176v-272h16v-16h-24c-4.417969 0-8 3.582031-8 8v8h-16v-8c0-4.417969-3.582031-8-8-8h-192c-4.417969 0-8 3.582031-8 8v208h16zm208 16v280c0 4.417969-3.582031 8-8 8s-8-3.582031-8-8v-280zm0 0"></path><path d="m160 344h48v16h-48zm0 0"></path><path d="m0 56.230469h16v207.769531h-16zm0 0"></path><path d="m56 80h32v16h-32zm0 0"></path><path d="m104 80h96v16h-96zm0 0"></path><path d="m56 112h144v16h-144zm0 0"></path><path d="m464 160.230469v183.769531h-192v16h200c4.417969 0 8-3.582031 8-8v-191.769531zm0 0"></path><path d="m56 216c0 4.417969 3.582031 8 8 8h128c4.417969 0 8-3.582031 8-8v-64c0-4.417969-3.582031-8-8-8h-128c-4.417969 0-8 3.582031-8 8zm16-56h112v48h-112zm0 0"></path><path d="m120 176h16v16h-16zm0 0"></path><path d="m152 176h16v16h-16zm0 0"></path><path d="m88 176h16v16h-16zm0 0"></path><path d="m304 240h112v16h-112zm0 0"></path><path d="m304 272h112v16h-112zm0 0"></path><path d="m376 144c26.507812 0 48-21.492188 48-48s-21.492188-48-48-48-48 21.492188-48 48c.027344 26.5 21.5 47.972656 48 48zm0-80c17.671875 0 32 14.328125 32 32s-14.328125 32-32 32-32-14.328125-32-32 14.328125-32 32-32zm0 0"></path><path d="m280 112c0 3.800781 2.675781 7.078125 6.398438 7.839844l14.195312 2.839844c.929688 2.644531 1.996094 5.238281 3.199219 7.769531l-8 12c-2.117188 3.171875-1.699219 7.398437 1 10.09375l22.640625 22.65625c2.695312 2.699219 6.921875 3.117187 10.09375 1l12-8c2.53125 1.203125 5.125 2.269531 7.769531 3.199219l2.863281 14.203124c.761719 3.722657 4.039063 6.398438 7.839844 6.398438h32c3.800781 0 7.078125-2.675781 7.839844-6.398438l2.839844-14.195312c2.644531-.929688 5.238281-1.996094 7.769531-3.199219l12 8c3.171875 2.117188 7.398437 1.699219 10.09375-1l22.65625-22.640625c2.699219-2.695312 3.117187-6.921875 1-10.09375l-8-12c1.203125-2.53125 2.269531-5.125 3.199219-7.769531l14.203124-2.863281c3.722657-.761719 6.398438-4.039063 6.398438-7.839844v-32c0-3.800781-2.675781-7.078125-6.398438-7.839844l-14.195312-2.839844c-.929688-2.644531-1.996094-5.238281-3.199219-7.769531l8-12c2.128907-3.179687 1.707031-7.421875-1.007812-10.117187l-22.632813-22.632813c-2.695312-2.699219-6.921875-3.117187-10.09375-1l-12 8c-2.53125-1.203125-5.125-2.269531-7.769531-3.199219l-2.863281-14.203124c-.761719-3.722657-4.039063-6.398438-7.839844-6.398438h-32c-3.800781 0-7.078125 2.675781-7.839844 6.398438l-2.839844 14.195312c-2.644531.929688-5.238281 1.996094-7.769531 3.199219l-12-8c-3.171875-2.117188-7.398437-1.699219-10.09375 1l-22.65625 22.640625c-2.699219 2.695312-3.117187 6.921875-1 10.09375l8 12c-1.203125 2.53125-2.269531 5.125-3.199219 7.769531l-14.203124 2.863281c-3.722657.761719-6.398438 4.039063-6.398438 7.839844zm16-25.441406 12.382812-2.480469c2.9375-.585937 5.300782-2.765625 6.121094-5.644531 1.34375-4.703125 3.222656-9.238282 5.601563-13.511719 1.457031-2.621094 1.332031-5.835937-.328125-8.328125l-6.992188-10.480469 13.359375-13.359375 10.480469 6.988282c2.496094 1.664062 5.707031 1.789062 8.328125.328124 4.273437-2.375 8.808594-4.253906 13.511719-5.597656 2.878906-.824218 5.058594-3.183594 5.648437-6.121094l2.445313-12.351562h18.882812l2.480469 12.382812c.585937 2.9375 2.765625 5.300782 5.644531 6.121094 4.703125 1.34375 9.238282 3.222656 13.511719 5.601563 2.621094 1.457031 5.835937 1.332031 8.328125-.328125l10.480469-6.992188 13.359375 13.359375-6.988282 10.480469c-1.664062 2.496094-1.789062 5.707031-.328124 8.328125 2.375 4.273437 4.253906 8.808594 5.597656 13.511719.824218 2.878906 3.183594 5.058594 6.121094 5.648437l12.351562 2.445313v18.882812l-12.382812 2.480469c-2.9375.585937-5.300782 2.765625-6.121094 5.644531-1.34375 4.703125-3.222656 9.238282-5.601563 13.511719-1.457031 2.621094-1.332031 5.835937.328125 8.328125l6.992188 10.480469-13.359375 13.359375-10.480469-6.988282c-2.496094-1.664062-5.707031-1.789062-8.328125-.328124-4.273437 2.375-8.808594 4.253906-13.511719 5.597656-2.878906.824218-5.058594 3.183594-5.648437 6.121094l-2.445313 12.351562h-18.882812l-2.480469-12.382812c-.585937-2.9375-2.765625-5.300782-5.644531-6.121094-4.703125-1.34375-9.238282-3.222656-13.511719-5.601563-2.621094-1.457031-5.835937-1.332031-8.328125.328125l-10.480469 6.992188-13.359375-13.359375 6.988282-10.480469c1.664062-2.496094 1.789062-5.707031.328124-8.328125-2.375-4.273437-4.253906-8.808594-5.597656-13.511719-.824218-2.878906-3.183594-5.058594-6.121094-5.648437l-12.351562-2.445313zm0 0"></path><path d="m268.0625 164.800781c3.785156 5.910157 8.039062 11.5 12.730469 16.71875l11.894531-10.695312c-4.105469-4.566407-7.828125-9.457031-11.136719-14.632813zm0 0"></path><path d="m420.070312 199c-39.757812 16.976562-85.738281 9.585938-118.175781-19l-10.589843 12c37.074218 32.6875 89.648437 41.132812 135.09375 21.703125zm0 0"></path><path d="m408 384h-200c-1.019531 0-2.027344.191406-2.976562.566406l-40 16c-3.042969 1.214844-5.039063 4.160156-5.039063 7.433594s1.996094 6.21875 5.039063 7.433594l40 16c.949218.375 1.957031.566406 2.976562.566406h200c13.253906 0 24-10.746094 24-24s-10.746094-24-24-24zm-184 16h160v16h-160zm-34.464844 8 18.464844-7.382812v14.765624zm218.464844 8h-8v-16h8c4.417969 0 8 3.582031 8 8s-3.582031 8-8 8zm0 0"></path><path d="m72 256c-31.011719-.050781-58.558594 19.792969-68.332031 49.21875-9.777344 29.429688.421875 61.8125 25.300781 80.324219-4.769531 6.160156-6.210938 14.269531-3.859375 21.695312 2.351563 7.429688 8.195313 13.230469 15.644531 15.523438 3.234375 14.660156 16.230469 25.101562 31.246094 25.101562s28.011719-10.441406 31.246094-25.101562c7.449218-2.292969 13.292968-8.09375 15.644531-15.523438 2.351563-7.425781.910156-15.535156-3.859375-21.695312 24.878906-18.511719 35.078125-50.894531 25.300781-80.324219-9.773437-29.425781-37.320312-49.269531-68.332031-49.21875zm0 176c-5.691406-.015625-10.941406-3.066406-13.777344-8h27.554688c-2.835938 4.933594-8.085938 7.984375-13.777344 8zm24-24h-48c-4.417969 0-8-3.582031-8-8s3.582031-8 8-8h48c4.417969 0 8 3.582031 8 8s-3.582031 8-8 8zm3.832031-31.617188c-1.265625-.226562-2.546875-.355468-3.832031-.382812h-48c-1.285156.027344-2.566406.15625-3.832031.382812-23.527344-13.550781-33.921875-42.050781-24.640625-67.566406 9.28125-25.519531 35.554687-40.683594 62.292968-35.953125 26.738282 4.730469 46.214844 27.984375 46.179688 55.136719.023438 20.027344-10.742188 38.515625-28.167969 48.382812zm0 0"></path><path d="m88 329.601562-9.34375-14.015624c-1.570312-2.101563-4.035156-3.335938-6.65625-3.335938s-5.085938 1.234375-6.65625 3.335938l-9.34375 14.015624-9.34375-14.042968-13.3125 8.882812 16 24c1.570312 2.097656 4.035156 3.332032 6.65625 3.332032s5.085938-1.234376 6.65625-3.332032l9.34375-14.042968 9.34375 14.015624c1.484375 2.226563 3.980469 3.5625 6.65625 3.5625s5.171875-1.335937 6.65625-3.5625l16-24-13.3125-8.878906zm0 0"></path></svg>