<!-- icon666.com - MILLIONS vector ICONS FREE --><svg viewBox="-76 0 511 512" xmlns="http://www.w3.org/2000/svg"><path d="m230.898438 187.734375v-15.683594c43.195312-18.851562 62.929687-69.152343 44.078124-112.34375-18.851562-43.195312-69.148437-62.929687-112.34375-44.078125-43.191406 18.851563-62.925781 69.152344-44.074218 112.34375 8.605468 19.722656 24.351562 35.46875 44.074218 44.078125v15.683594zm0 0" fill="#f8cf26"></path><path d="m128.5 409.601562h136.53125c47.128906 0 85.335938 38.203126 85.335938 85.332032v17.066406h-307.199219v-17.066406c0-47.128906 38.203125-85.332032 85.332031-85.332032zm0 0" fill="#0071bc"></path><path d="m256.5 409.601562v25.597657c0 32.988281-26.742188 59.734375-59.734375 59.734375-32.988281 0-59.730469-26.742188-59.730469-59.734375v-25.597657zm0 0" fill="#f2c09a"></path><path d="m307.699219 221.867188v118.527343c0 22.632813-8.09375 44.515625-22.824219 61.695313-18.007812 21.015625-44.304688 33.113281-71.980469 33.109375h-32.253906c-27.679687.003906-53.972656-12.09375-71.980469-33.109375-14.730468-17.179688-22.828125-39.0625-22.828125-61.695313v-118.527343zm0 0" fill="#f2c09a"></path><g fill="#cc9c72"><path d="m212.894531 435.199219h-32.253906c-15.191406-.035157-30.148437-3.734375-43.605469-10.777344v10.777344c.015625 5.410156.765625 10.792969 2.234375 16 12.882813 6.292969 27.03125 9.574219 41.371094 9.601562h32.253906c14.339844-.027343 28.484375-3.308593 41.371094-9.601562 1.46875-5.207031 2.21875-10.589844 2.234375-16v-10.777344c-13.457031 7.042969-28.414062 10.742187-43.605469 10.777344zm0 0"></path><path d="m85.832031 324.265625h-8.53125c-14.140625 0-25.601562-11.460937-25.601562-25.597656 0-14.140625 11.460937-25.601563 25.601562-25.601563h8.53125zm0 0"></path><path d="m307.699219 273.066406h8.535156c14.136719 0 25.597656 11.460938 25.597656 25.601563 0 14.136719-11.460937 25.597656-25.597656 25.597656h-8.535156zm0 0"></path></g><path d="m209.039062 256h-24.542968c-7.835938.003906-14.664063-5.328125-16.5625-12.929688l-5.300782-21.203124h68.269532l-5.300782 21.203124c-1.902343 7.601563-8.730468 12.933594-16.5625 12.929688zm0 0" fill="#0071bc"></path><path d="m145.566406 187.734375h102.398438v34.132813h-102.398438zm0 0" fill="#29abe2"></path><path d="m134.261719 402.089844c-14.730469-17.179688-22.828125-39.066406-22.828125-61.695313v-118.527343h-25.601563v118.527343c.007813 52.359375 42.449219 94.800781 94.808594 94.804688h25.597656c-27.675781.003906-53.96875-12.09375-71.976562-33.109375zm0 0" fill="#e8b894"></path><path d="m265.03125 290.132812c0-4.710937-3.820312-8.53125-8.53125-8.53125h-42.667969c-9.425781 0-17.066406 7.640626-17.066406 17.066407v34.132812h-8.53125c-4.714844 0-8.535156 3.820313-8.535156 8.53125 0 4.714844 3.820312 8.535157 8.535156 8.535157h8.53125c9.425781 0 17.066406-7.640626 17.066406-17.066407v-34.132812h42.667969c4.710938 0 8.53125-3.820313 8.53125-8.535157zm0 0"></path><path d="m179.699219 290.132812c0-4.710937-3.820313-8.53125-8.53125-8.53125h-34.132813c-4.714844 0-8.535156 3.820313-8.535156 8.53125 0 4.714844 3.820312 8.535157 8.535156 8.535157h34.132813c4.710937 0 8.53125-3.820313 8.53125-8.535157zm0 0"></path><path d="m188.234375 392.53125c-4.714844 0-8.535156 3.824219-8.535156 8.535156 0 4.714844 3.820312 8.535156 8.535156 8.535156h17.066406c4.710938 0 8.53125-3.820312 8.53125-8.535156 0-4.710937-3.820312-8.535156-8.53125-8.535156zm0 0"></path><path d="m293.097656 405.410156c14.933594-18.378906 23.101563-41.328125 23.136719-65.007812v-7.601563c18.851563 0 34.132813-15.28125 34.132813-34.132812 0-18.851563-15.28125-34.132813-34.132813-34.132813v-42.667968h-17.066406v118.535156c0 47.640625-38.625 86.265625-86.265625 86.265625-.003906 0-.003906 0-.007813 0h-32.257812c-47.640625.003906-86.265625-38.613281-86.269531-86.257813 0 0 0-.003906 0-.007812v-118.535156h-17.066407v42.667968c-18.851562 0-34.132812 15.28125-34.132812 34.132813 0 18.851562 15.28125 34.132812 34.132812 34.132812v7.601563c.03125 23.679687 8.199219 46.628906 23.132813 65.007812-39.058594 12.367188-65.65625 48.550782-65.800782 89.523438v17.066406h17.066407v-17.066406c.125-36.914063 26.417969-68.554688 62.6875-75.425782 4.410156 3.75 9.132812 7.117188 14.113281 10.066407v5.625c0 37.703125 30.5625 68.265625 68.265625 68.265625s68.265625-30.5625 68.265625-68.265625v-5.625c4.984375-2.949219 9.703125-6.316407 14.117188-10.066407 36.269531 6.871094 62.5625 38.511719 62.683593 75.425782v17.066406h17.066407v-17.066406c-.140626-40.972656-26.738282-77.15625-65.800782-89.523438zm40.203125-106.742187c0 9.425781-7.640625 17.066406-17.066406 17.066406v-34.132813c9.425781 0 17.066406 7.640626 17.066406 17.066407zm-273.066406 0c0-9.425781 7.640625-17.066407 17.066406-17.066407v34.132813c-9.425781 0-17.066406-7.640625-17.066406-17.066406zm136.53125 187.730469c-27.335937-.035157-49.820313-21.535157-51.078125-48.84375 11.214844 4.070312 23.054688 6.160156 34.984375 6.179687h32.257813c11.929687-.019531 23.769531-2.109375 34.984374-6.179687-1.257812 27.335937-23.785156 48.847656-51.148437 48.84375zm0 0"></path><path d="m162.632812 315.734375c0 4.710937-3.820312 8.53125-8.53125 8.53125-4.714843 0-8.535156-3.820313-8.535156-8.53125 0-4.714844 3.820313-8.535156 8.535156-8.535156 4.710938 0 8.53125 3.820312 8.53125 8.535156zm0 0"></path><path d="m247.964844 315.734375c0 4.710937-3.820313 8.53125-8.53125 8.53125-4.714844 0-8.535156-3.820313-8.535156-8.53125 0-4.714844 3.820312-8.535156 8.535156-8.535156 4.710937 0 8.53125 3.820312 8.53125 8.535156zm0 0"></path><path d="m72.710938 400.101562-7.886719-15.136718c-39.582031 20.519531-64.398438 61.414062-64.324219 106h17.066406c-.0625-38.21875 21.214844-73.273438 55.144532-90.863282zm0 0"></path><path d="m196.765625 0c-51.839844-.0195312-93.882813 41.992188-93.898437 93.832031-.015626 35.304688 19.78125 67.628907 51.234374 83.660157v1.707031h-8.535156c-4.710937 0-8.53125 3.820312-8.53125 8.535156v34.132813c0 4.710937 3.820313 8.53125 8.53125 8.53125h10.402344l3.6875 14.753906c2.851562 11.394531 13.09375 19.382812 24.839844 19.378906h24.542968c11.746094.003906 21.988282-7.988281 24.839844-19.386719l3.6875-14.746093h10.402344c4.710938 0 8.53125-3.820313 8.53125-8.53125v-34.132813c0-4.714844-3.820312-8.535156-8.53125-8.535156h-8.535156v-1.707031c46.1875-23.542969 64.539062-80.070313 40.996094-126.257813-16.035157-31.453125-48.359376-51.2460938-83.664063-51.234375zm20.558594 241c-.949219 3.800781-4.367188 6.46875-8.285157 6.464844h-24.542968c-3.917969.003906-7.335938-2.660156-8.285156-6.457032l-2.644532-10.609374h46.402344zm22.109375-27.667969h-85.332032v-17.066406h85.332032zm-11.945313-49.097656c-3.109375 1.355469-5.121093 4.421875-5.121093 7.816406v7.148438h-17.066407v-47.667969l31.632813-31.632812-12.066406-12.066407-28.101563 28.101563-28.101563-28.101563-12.0625 12.066407 31.632813 31.632812v47.667969h-17.066406v-7.148438c-.003907-3.394531-2.011719-6.460937-5.121094-7.816406-38.875-16.96875-56.636719-62.234375-39.667969-101.109375 16.964844-38.875 62.234375-56.636719 101.105469-39.667969 38.875 16.964844 56.636719 62.234375 39.671875 101.105469-7.75 17.753906-21.917969 31.921875-39.667969 39.671875zm0 0"></path><path d="m276.007812 16.214844c34.84375 35.566406 41.730469 89.988281 16.851563 133.117187l14.78125 8.535157c28.703125-49.765626 20.753906-112.558594-19.449219-153.601563zm0 0"></path><path d="m274.417969 173.097656 11.949219 12.203125c3.917968-3.84375 7.589843-7.933593 10.992187-12.246093l-13.417969-10.5625c-2.9375 3.738281-6.117187 7.28125-9.523437 10.605468zm0 0"></path></svg>