<!-- icon666.com - MILLIONS vector ICONS FREE --><svg viewBox="-3 1 511 511.9995" xmlns="http://www.w3.org/2000/svg"><path d="m376.191406 175.542969c-8.109375-14.457031-12.464844-30.714844-12.671875-47.289063l-.316406-25.578125-21.992187-13.0625c-14.25-8.464843-26.152344-20.367187-34.617188-34.617187l-13.0625-21.992188-25.578125-.320312c-16.574219-.203125-32.832031-4.558594-47.289063-12.667969l-22.3125-12.515625-22.308593 12.511719c-14.457031 8.109375-30.714844 12.46875-47.289063 12.671875l-25.578125.316406-13.0625 21.996094c-8.464843 14.25-20.367187 26.152344-34.617187 34.617187l-21.992188 13.0625-.320312 25.578125c-.203125 16.574219-4.558594 32.832032-12.667969 47.289063l-12.515625 22.308593 12.515625 22.308594c8.109375 14.457032 12.464844 30.714844 12.667969 47.292969l.320312 25.578125 21.992188 13.0625c14.25 8.464844 26.152344 20.367188 34.617187 34.617188l13.0625 21.992187 25.578125.316406c16.574219.203125 32.832032 4.5625 47.289063 12.671875l22.308593 12.511719 22.3125-12.511719c14.457032-8.109375 30.714844-12.46875 47.289063-12.671875l25.578125-.316406 13.0625-21.992187c8.464844-14.25 20.367188-26.152344 34.617188-34.617188l21.992187-13.0625.316406-25.578125c.207031-16.574219 4.5625-32.835937 12.671875-47.292969l12.515625-22.308594zm0 0" fill="#f29e77"></path><path d="m198.351562 388.207031 22.3125-12.515625c14.457032-8.109375 30.714844-12.46875 47.289063-12.671875l25.578125-.316406 13.0625-21.992187c8.464844-14.253907 20.367188-26.15625 34.617188-34.621094l21.992187-13.0625.316406-25.578125c.207031-16.574219 4.5625-32.832031 12.671875-47.289063l3.191406-5.6875c-27.722656-18.859375-60.644531-29.082031-94.476562-29.082031-31.878906 0-62.910156 8.976563-89.738281 25.960937-20.5625 13.019532-37.984375 30.277344-51.152344 50.53125-35.914063 1.988282-68.167969 17.933594-91.414063 42.488282l2.894532 1.71875c14.25 8.464844 26.152344 20.367187 34.617187 34.617187l13.0625 21.996094 25.578125.316406c16.574219.203125 32.835938 4.5625 47.292969 12.671875zm0 0" fill="#ed906b"></path><path d="m343.894531 197.851562c0 80.382813-65.160156 145.542969-145.542969 145.542969-80.378906 0-145.539062-65.160156-145.539062-145.542969 0-80.378906 65.160156-145.542968 145.539062-145.542968 80.382813 0 145.542969 65.164062 145.542969 145.542968zm0 0" fill="#f6d78f"></path><path d="m198.351562 343.394531c80.382813 0 145.542969-65.160156 145.542969-145.542969 0-.589843-.015625-1.175781-.019531-1.761718-18.714844-7.015625-38.675781-10.699219-58.96875-10.699219-31.878906 0-62.910156 8.980469-89.738281 25.964844-20.5625 13.019531-37.984375 30.273437-51.152344 50.527343-23.492187 1.300782-45.417969 8.574219-64.28125 20.320313 26.386719 37.035156 69.679687 61.191406 118.617187 61.191406zm0 0" fill="#e9c16e"></path><path d="m410.902344 504.5c48.0625 0 87.027344-38.960938 87.027344-87.023438 0-44.621093-33.585938-81.390624-76.855469-86.429687-10.667969-65.585937-67.566407-115.65625-136.167969-115.65625-54.199219 0-101.089844 31.257813-123.65625 76.71875-3.167969-.28125-6.371094-.4375-9.613281-.4375-58.769531 0-106.414063 47.644531-106.414063 106.414063 0 58.769531 47.644532 106.414062 106.414063 106.414062zm0 0" fill="#ebecec"></path><path d="m133.914062 141.316406c-4.140624 0-7.5 3.355469-7.5 7.5v11.660156c0 4.140626 3.359376 7.5 7.5 7.5 4.140626 0 7.5-3.359374 7.5-7.5v-11.660156c0-4.144531-3.355468-7.5-7.5-7.5zm0 0"></path><path d="m262.792969 141.316406c-4.144531 0-7.5 3.355469-7.5 7.5v11.660156c0 4.140626 3.355469 7.5 7.5 7.5 4.140625 0 7.5-3.359374 7.5-7.5v-11.660156c0-4.144531-3.359375-7.5-7.5-7.5zm0 0"></path><path d="m219.195312 154.019531c-3.121093-2.726562-7.859374-2.40625-10.585937.710938-2.484375 2.839843-6.222656 4.472656-10.257813 4.472656-4.03125 0-7.769531-1.632813-10.253906-4.476563-2.726562-3.117187-7.464844-3.4375-10.585937-.710937-3.117188 2.726563-3.4375 7.464844-.710938 10.585937 5.335938 6.101563 13.191407 9.601563 21.550781 9.601563 8.363282 0 16.21875-3.5 21.550782-9.601563 2.726562-3.117187 2.410156-7.855468-.707032-10.582031zm0 0"></path><path d="m298.144531 365.292969c6.660157-6.214844 26.1875-20.636719 26.1875-43.496094 0-21.300781-17.53125-37.503906-45.714843-37.503906-26.851563 0-40.832032 15.535156-40.832032 26.1875 0 7.324219 5.992188 10.652343 11.097656 10.652343 10.207032 0 7.320313-15.3125 29.070313-15.3125 13.535156 0 22.855469 6.65625 22.855469 19.085938 0 15.089844-13.980469 22.855469-21.746094 30.179688-6.214844 5.546874-13.316406 14.421874-13.316406 35.0625 0 9.542968 2.886718 12.425781 10.210937 12.425781 9.097657 0 11.09375-3.996094 11.09375-7.988281 0-12.871094.21875-20.417969 11.09375-29.292969zm0 0"></path><path d="m276.175781 418.550781c-8.210937 0-14.867187 6.878907-14.867187 15.089844 0 7.988281 6.4375 15.089844 14.867187 15.089844 8.433594 0 15.089844-7.101563 15.089844-15.089844 0-8.210937-6.878906-15.089844-15.089844-15.089844zm0 0"></path><path d="m427.484375 324.40625c-6.386719-31.566406-23.253906-60.332031-47.882813-81.472656-1.277343-1.09375-2.574218-2.15625-3.882812-3.207032 1.835938-5.511718 4.179688-10.84375 7.015625-15.894531l12.515625-22.308593c1.277344-2.28125 1.277344-5.0625 0-7.339844l-12.515625-22.308594c-7.472656-13.324219-11.523437-28.441406-11.714844-43.714844l-.316406-25.578125c-.03125-2.613281-1.421875-5.019531-3.667969-6.355469l-21.992187-13.0625c-13.132813-7.800781-24.199219-18.867187-32-32l-13.0625-21.992187c-1.335938-2.246094-3.742188-3.636719-6.355469-3.667969l-25.578125-.316406c-15.273437-.191406-30.390625-4.242188-43.714844-11.714844l-22.308593-12.515625c-2.277344-1.277343-5.058594-1.277343-7.339844 0l-22.308594 12.515625c-13.324219 7.472656-28.4375 11.523438-43.714844 11.714844l-25.574218.316406c-2.613282.03125-5.023438 1.421875-6.355469 3.667969l-13.066407 21.992187c-7.800781 13.132813-18.867187 24.199219-32 32l-21.992187 13.0625c-2.246094 1.335938-3.636719 3.742188-3.667969 6.355469l-.316406 25.578125c-.191406 15.273438-4.242188 30.390625-11.714844 43.714844l-12.515625 22.308594c-1.277343 2.277344-1.277343 5.058594 0 7.339844l12.515625 22.308593c7.472656 13.320313 11.523438 28.4375 11.714844 43.710938l.316406 25.578125c.03125 2.613281 1.421875 5.019531 3.667969 6.355468l21.992187 13.0625c5.101563 3.03125 9.890626 6.5625 14.320313 10.53125-17.585937 20.054688-28.261719 46.308594-28.261719 75.015626 0 62.8125 51.101563 113.914062 113.914063 113.914062h259.265625c22.480468 0 44.261718-8.03125 61.339844-22.609375 3.152343-2.6875 3.523437-7.421875.835937-10.574219-2.6875-3.148437-7.425781-3.523437-10.574219-.832031-14.367187 12.261719-32.691406 19.015625-51.601562 19.015625h-259.265625c-54.542969 0-98.914063-44.371094-98.914063-98.914062 0-43.003907 27.585938-79.675782 65.992188-93.273438 13.382812-4.734375 27.734375-6.488281 41.867187-5.230469 3.082031.273438 6.011719-1.367187 7.386719-4.136719 21.832031-43.992187 67.824219-72.554687 116.9375-72.554687 63.035156 0 118.648438 47.152344 128.769531 109.359375.535157 3.308594 3.203125 5.859375 6.535157 6.246094 40.03125 4.660156 70.21875 38.613281 70.21875 78.976562 0 13.996094-3.683594 27.753906-10.65625 39.792969-2.078126 3.582031-.851563 8.171875 2.730468 10.246094 3.585938 2.078125 8.171875.855469 10.25-2.730469 8.292969-14.316406 12.675782-30.675781 12.675782-47.304688 0-46.097656-33.128907-85.164062-77.945313-93.070312zm-168.15625-114.265625c-30.769531 5.472656-59.476563 21.125-80.785156 43.980469-8.460938 9.0625-15.757813 19.199218-21.6875 30.175781-5.640625-.265625-11.289063-.070313-16.910157.472656-13.601562 1.378907-26.6875 5.15625-38.753906 11.128907-26.042968-25.839844-40.878906-61.269532-40.878906-98.046876 0-31.441406 10.300781-61.0625 29.792969-85.660156 2.574219-3.246094 2.027343-7.964844-1.21875-10.535156-3.246094-2.574219-7.964844-2.027344-10.539063 1.21875-21.613281 27.273438-33.039062 60.117188-33.039062 94.980469 0 39.429687 15.398437 77.464843 42.527344 105.832031-3.910157 2.652344-7.675782 5.558594-11.273438 8.71875-5.308594-4.828125-11.082031-9.105469-17.238281-12.757812l-18.375-10.917969-.265625-21.371094c-.21875-17.773437-4.933594-35.363281-13.628906-50.867187l-10.457032-18.640626 10.457032-18.640624c8.695312-15.5 13.410156-33.089844 13.628906-50.863282l.265625-21.371094 18.375-10.917968c15.285156-9.074219 28.160156-21.953125 37.238281-37.234375l10.914062-18.375 21.371094-.265625c17.773438-.222656 35.363282-4.933594 50.867188-13.628906l18.640625-10.457032 18.640625 10.457032c15.5 8.695312 33.089844 13.40625 50.863281 13.628906l21.371094.265625 10.914062 18.375c9.078125 15.28125 21.957031 28.160156 37.238281 37.234375l18.375 10.917968.265626 21.371094c.222656 17.773438 4.933593 35.363282 13.628906 50.863282l10.457031 18.640624-10.457031 18.640626c-2.546875 4.539062-4.757813 9.269531-6.617188 14.144531.035156-.136719-9.851562-5.835938-13.691406-7.742188 1.355469-8.246093 2.054688-16.640625 2.054688-25.042969 0-84.386718-68.65625-153.039062-153.042969-153.039062-36.441407 0-71.75 13.03125-99.421875 36.695312-3.144532 2.695313-3.515625 7.429688-.824219 10.578126 2.691406 3.148437 7.429687 3.515624 10.574219.824218 24.957031-21.34375 56.800781-33.097656 89.671875-33.097656 76.117187 0 138.042969 61.925781 138.042969 138.039062 0 6.335938-.433594 12.667969-1.289063 18.914063-3.855469-1.417969-7.777344-2.652344-11.746094-3.738281-20.777343-5.683594-42.832031-6.652344-64.035156-2.886719zm0 0"></path></svg>